# xmcd
#
# Track frame offsets:
#	150
#	13427
#	25118
#	37800
#	51479
#	64181
#	74283
#	86813
#	98365
#	112146
#	122884
#	136750
#	149951
#	162729
#	172809
#	184622
#	196748
#	220243
#
# Disc length: 2951 seconds
#
# Revision: 1
# Processed by: cddbd v1.5.2PL0 Copyright (c) Steve Scherf et al.
# Submitted via: audiograbber 1.83.01
#
DISCID=0b0b8512
DTITLE=Chartbuster - Country 500 vol.1 d.2 8532-2
DYEAR=1900
DGENRE=Country
TTITLE0=Hank Thompson - The wild side of life
TTITLE1=Hank Williams - I can't help if I'm still in love with you
TTITLE2=Kitty Wells - It wasn't God who made honkey tonk angels
TTITLE3=Hank Williams - Your Cheating heart
TTITLE4=Carl Smith - Loose Talk
TTITLE5=Tennessee Earnie Ford - Sixteen Tons
TTITLE6=Johnny Cash - Folsom Prison Blues
TTITLE7=Ferlin Husky - Gone
TTITLE8=Jim Reeves - Four Walls
TTITLE9=Jimmie Rogers - Kisses sweeter than wine
TTITLE10=Lee Roy Van Dyke - Auctioneer
TTITLE11=Hank Williams - Cold cold heart
TTITLE12=Marty Robbins - White Sport Coat (And a Pink Carnation)
TTITLE13=Patsy Cline - Walkin' After Midnight
TTITLE14=Charlie Walker - Pick Me Up on Your Way Down
TTITLE15=Hank Locklin - Send Me the Pillow You Dream On
TTITLE16=Bob Willis &Texas Playboys - San Antonio Rose
TTITLE17=var - Data
EXTD=
EXTT0=
EXTT1=
EXTT2=
EXTT3=
EXTT4=
EXTT5=
EXTT6=
EXTT7=
EXTT8=
EXTT9=
EXTT10=
EXTT11=
EXTT12=
EXTT13=
EXTT14=
EXTT15=
EXTT16=
EXTT17=
PLAYORDER=
